<mxfile host="app.diagrams.net" agent="Mozilla/5.0 (Windows NT 10.0; Win64; x64) AppleWebKit/537.36 (KHTML, like Gecko) Chrome/126.0.0.0 Safari/537.36" version="24.7.4">
  <diagram name="Page-1" id="13e1069c-82ec-6db2-03f1-153e76fe0fe0">
    <mxGraphModel dx="1744" dy="1761" grid="1" gridSize="10" guides="1" tooltips="1" connect="1" arrows="1" fold="1" page="1" pageScale="1" pageWidth="1100" pageHeight="850" background="#ffffff" math="0" shadow="0">
      <root>
        <mxCell id="0" />
        <mxCell id="1" parent="0" />
        <mxCell id="uAxd9iSAwdrFBhgmnrhm-1" value="Actor" style="shape=umlActor;verticalLabelPosition=bottom;verticalAlign=top;html=1;outlineConnect=0;" parent="1" vertex="1">
          <mxGeometry x="135" y="-10" width="25" height="60" as="geometry" />
        </mxCell>
        <mxCell id="uAxd9iSAwdrFBhgmnrhm-7" value="" style="html=1;points=[[0,0,0,0,5],[0,1,0,0,-5],[1,0,0,0,5],[1,1,0,0,-5]];perimeter=orthogonalPerimeter;outlineConnect=0;targetShapes=umlLifeline;portConstraint=eastwest;newEdgeStyle={&quot;curved&quot;:0,&quot;rounded&quot;:0};" parent="1" vertex="1">
          <mxGeometry x="142.5" y="110" width="10" height="510" as="geometry" />
        </mxCell>
        <mxCell id="uAxd9iSAwdrFBhgmnrhm-9" value="" style="rounded=0;whiteSpace=wrap;html=1;" parent="1" vertex="1">
          <mxGeometry x="220" width="120" height="60" as="geometry" />
        </mxCell>
        <mxCell id="uAxd9iSAwdrFBhgmnrhm-13" value="Login&lt;div&gt;Success&lt;/div&gt;" style="text;strokeColor=none;fillColor=none;html=1;align=center;verticalAlign=middle;whiteSpace=wrap;rounded=0;fontSize=16;" parent="1" vertex="1">
          <mxGeometry x="250" y="15" width="60" height="30" as="geometry" />
        </mxCell>
        <mxCell id="uAxd9iSAwdrFBhgmnrhm-14" value="" style="html=1;points=[[0,0,0,0,5],[0,1,0,0,-5],[1,0,0,0,5],[1,1,0,0,-5]];perimeter=orthogonalPerimeter;outlineConnect=0;targetShapes=umlLifeline;portConstraint=eastwest;newEdgeStyle={&quot;curved&quot;:0,&quot;rounded&quot;:0};" parent="1" vertex="1">
          <mxGeometry x="275" y="120" width="10" height="80" as="geometry" />
        </mxCell>
        <mxCell id="uAxd9iSAwdrFBhgmnrhm-15" value="" style="endArrow=open;endFill=1;endSize=12;html=1;rounded=0;fontSize=12;curved=1;" parent="1" edge="1">
          <mxGeometry width="160" relative="1" as="geometry">
            <mxPoint x="152.5" y="120" as="sourcePoint" />
            <mxPoint x="270" y="120" as="targetPoint" />
          </mxGeometry>
        </mxCell>
        <mxCell id="uAxd9iSAwdrFBhgmnrhm-16" value="Enter&lt;div style=&quot;font-size: 11px;&quot;&gt;crendentials&lt;/div&gt;&lt;div style=&quot;font-size: 11px;&quot;&gt;&lt;br style=&quot;font-size: 11px;&quot;&gt;&lt;/div&gt;" style="text;html=1;align=center;verticalAlign=middle;resizable=0;points=[];autosize=1;strokeColor=none;fillColor=none;fontSize=11;" parent="1" vertex="1">
          <mxGeometry x="175" y="80" width="80" height="50" as="geometry" />
        </mxCell>
        <mxCell id="uAxd9iSAwdrFBhgmnrhm-30" value="" style="endArrow=block;dashed=1;endFill=0;endSize=12;html=1;rounded=0;fontSize=12;curved=1;" parent="1" edge="1">
          <mxGeometry width="160" relative="1" as="geometry">
            <mxPoint x="270" y="160" as="sourcePoint" />
            <mxPoint x="152.5" y="160" as="targetPoint" />
            <Array as="points">
              <mxPoint x="202.5" y="160" />
            </Array>
          </mxGeometry>
        </mxCell>
        <mxCell id="uAxd9iSAwdrFBhgmnrhm-32" value="" style="endArrow=open;endFill=1;endSize=12;html=1;rounded=0;fontSize=12;curved=1;" parent="1" edge="1">
          <mxGeometry width="160" relative="1" as="geometry">
            <mxPoint x="290" y="120" as="sourcePoint" />
            <mxPoint x="290" y="160" as="targetPoint" />
            <Array as="points">
              <mxPoint x="350" y="140" />
            </Array>
          </mxGeometry>
        </mxCell>
        <mxCell id="uAxd9iSAwdrFBhgmnrhm-34" value="Invalid&lt;div style=&quot;font-size: 14px;&quot;&gt;Password&lt;/div&gt;" style="text;strokeColor=none;fillColor=none;html=1;align=center;verticalAlign=middle;whiteSpace=wrap;rounded=0;fontSize=16;movable=0;resizable=0;rotatable=0;deletable=0;editable=0;locked=1;connectable=0;" parent="1" vertex="1">
          <mxGeometry x="185" y="145" width="65" height="30" as="geometry" />
        </mxCell>
        <mxCell id="uAxd9iSAwdrFBhgmnrhm-35" value="" style="endArrow=none;dashed=1;html=1;rounded=0;fontSize=12;startSize=8;endSize=8;curved=1;" parent="1" edge="1">
          <mxGeometry width="50" height="50" relative="1" as="geometry">
            <mxPoint x="280" y="60" as="sourcePoint" />
            <mxPoint x="280" y="115.71067811865476" as="targetPoint" />
          </mxGeometry>
        </mxCell>
        <mxCell id="uAxd9iSAwdrFBhgmnrhm-36" value="" style="endArrow=open;endFill=1;endSize=12;html=1;rounded=0;fontSize=12;curved=1;" parent="1" source="uAxd9iSAwdrFBhgmnrhm-7" target="uAxd9iSAwdrFBhgmnrhm-38" edge="1">
          <mxGeometry width="160" relative="1" as="geometry">
            <mxPoint x="160" y="200" as="sourcePoint" />
            <mxPoint x="410" y="200" as="targetPoint" />
            <Array as="points">
              <mxPoint x="290" y="200" />
            </Array>
          </mxGeometry>
        </mxCell>
        <mxCell id="uAxd9iSAwdrFBhgmnrhm-37" value="&lt;font style=&quot;font-size: 10px;&quot;&gt;Input Event details&lt;/font&gt;" style="text;strokeColor=none;fillColor=none;html=1;align=center;verticalAlign=middle;whiteSpace=wrap;rounded=0;fontSize=16;" parent="1" vertex="1">
          <mxGeometry x="290" y="170" width="90" height="30" as="geometry" />
        </mxCell>
        <mxCell id="uAxd9iSAwdrFBhgmnrhm-38" value="" style="html=1;points=[[0,0,0,0,5],[0,1,0,0,-5],[1,0,0,0,5],[1,1,0,0,-5]];perimeter=orthogonalPerimeter;outlineConnect=0;targetShapes=umlLifeline;portConstraint=eastwest;newEdgeStyle={&quot;curved&quot;:0,&quot;rounded&quot;:0};" parent="1" vertex="1">
          <mxGeometry x="420" y="200" width="10" height="80" as="geometry" />
        </mxCell>
        <mxCell id="FSA55eEFAxlR80Mi2E83-1" value="" style="verticalLabelPosition=bottom;verticalAlign=top;html=1;shape=mxgraph.basic.rect;fillColor2=none;strokeWidth=1;size=20;indent=5;" parent="1" vertex="1">
          <mxGeometry x="370" width="120" height="60" as="geometry" />
        </mxCell>
        <mxCell id="FSA55eEFAxlR80Mi2E83-2" value="Event&amp;nbsp;&lt;div&gt;Details&lt;/div&gt;" style="text;strokeColor=none;fillColor=none;html=1;align=center;verticalAlign=middle;whiteSpace=wrap;rounded=0;fontSize=16;" parent="1" vertex="1">
          <mxGeometry x="400" y="15" width="60" height="30" as="geometry" />
        </mxCell>
        <mxCell id="FSA55eEFAxlR80Mi2E83-3" value="" style="endArrow=none;dashed=1;html=1;rounded=0;fontSize=12;startSize=8;endSize=8;curved=1;" parent="1" source="FSA55eEFAxlR80Mi2E83-1" target="uAxd9iSAwdrFBhgmnrhm-38" edge="1">
          <mxGeometry width="50" height="50" relative="1" as="geometry">
            <mxPoint x="430" y="110" as="sourcePoint" />
            <mxPoint x="430" y="130.71067811865476" as="targetPoint" />
          </mxGeometry>
        </mxCell>
        <mxCell id="FSA55eEFAxlR80Mi2E83-4" value="" style="endArrow=block;dashed=1;endFill=0;endSize=12;html=1;rounded=0;fontSize=12;curved=1;" parent="1" source="uAxd9iSAwdrFBhgmnrhm-38" target="uAxd9iSAwdrFBhgmnrhm-7" edge="1">
          <mxGeometry width="160" relative="1" as="geometry">
            <mxPoint x="260" y="239.5" as="sourcePoint" />
            <mxPoint x="420" y="239.5" as="targetPoint" />
          </mxGeometry>
        </mxCell>
        <mxCell id="FSA55eEFAxlR80Mi2E83-6" value="User will verify the details" style="text;strokeColor=none;fillColor=none;html=1;align=center;verticalAlign=middle;whiteSpace=wrap;rounded=0;fontSize=13;" parent="1" vertex="1">
          <mxGeometry x="180" y="210" width="200" height="30" as="geometry" />
        </mxCell>
        <mxCell id="FSA55eEFAxlR80Mi2E83-7" value="" style="endArrow=open;endFill=1;endSize=12;html=1;rounded=0;fontSize=12;curved=1;exitX=0.75;exitY=0.333;exitDx=0;exitDy=0;exitPerimeter=0;" parent="1" source="uAxd9iSAwdrFBhgmnrhm-7" target="FSA55eEFAxlR80Mi2E83-10" edge="1">
          <mxGeometry width="160" relative="1" as="geometry">
            <mxPoint x="160" y="280" as="sourcePoint" />
            <mxPoint x="540" y="279.97733333333326" as="targetPoint" />
          </mxGeometry>
        </mxCell>
        <mxCell id="FSA55eEFAxlR80Mi2E83-9" value="" style="verticalLabelPosition=bottom;verticalAlign=top;html=1;shape=mxgraph.basic.rect;fillColor2=none;strokeWidth=1;size=20;indent=5;" parent="1" vertex="1">
          <mxGeometry x="530" width="120" height="60" as="geometry" />
        </mxCell>
        <mxCell id="FSA55eEFAxlR80Mi2E83-10" value="" style="html=1;points=[[0,0,0,0,5],[0,1,0,0,-5],[1,0,0,0,5],[1,1,0,0,-5]];perimeter=orthogonalPerimeter;outlineConnect=0;targetShapes=umlLifeline;portConstraint=eastwest;newEdgeStyle={&quot;curved&quot;:0,&quot;rounded&quot;:0};" parent="1" vertex="1">
          <mxGeometry x="585" y="280" width="10" height="80" as="geometry" />
        </mxCell>
        <mxCell id="FSA55eEFAxlR80Mi2E83-12" value="" style="endArrow=none;dashed=1;html=1;rounded=0;fontSize=12;startSize=8;endSize=8;curved=1;" parent="1" source="FSA55eEFAxlR80Mi2E83-9" target="FSA55eEFAxlR80Mi2E83-10" edge="1">
          <mxGeometry width="50" height="50" relative="1" as="geometry">
            <mxPoint x="590" y="110" as="sourcePoint" />
            <mxPoint x="590" y="130.71067811865476" as="targetPoint" />
          </mxGeometry>
        </mxCell>
        <mxCell id="FSA55eEFAxlR80Mi2E83-13" value="FInd Your Location" style="text;strokeColor=none;fillColor=none;html=1;align=center;verticalAlign=middle;whiteSpace=wrap;rounded=0;fontSize=14;" parent="1" vertex="1">
          <mxGeometry x="440" y="250" width="140" height="30" as="geometry" />
        </mxCell>
        <mxCell id="FSA55eEFAxlR80Mi2E83-14" value="Location" style="text;strokeColor=none;fillColor=none;html=1;align=center;verticalAlign=middle;whiteSpace=wrap;rounded=0;fontSize=16;" parent="1" vertex="1">
          <mxGeometry x="560" y="15" width="60" height="30" as="geometry" />
        </mxCell>
        <mxCell id="FSA55eEFAxlR80Mi2E83-15" value="" style="endArrow=block;dashed=1;endFill=0;endSize=12;html=1;rounded=0;fontSize=12;curved=1;" parent="1" target="uAxd9iSAwdrFBhgmnrhm-7" edge="1">
          <mxGeometry width="160" relative="1" as="geometry">
            <mxPoint x="580" y="320" as="sourcePoint" />
            <mxPoint x="590" y="320" as="targetPoint" />
          </mxGeometry>
        </mxCell>
        <mxCell id="FSA55eEFAxlR80Mi2E83-16" value="Checking The Selected Location" style="text;strokeColor=none;fillColor=none;html=1;align=center;verticalAlign=middle;whiteSpace=wrap;rounded=0;fontSize=16;container=1;" parent="1" vertex="1">
          <mxGeometry x="200" y="290" width="310" height="30" as="geometry" />
        </mxCell>
        <mxCell id="FSA55eEFAxlR80Mi2E83-17" value="" style="endArrow=open;endFill=1;endSize=12;html=1;rounded=0;fontSize=12;curved=1;" parent="1" target="FSA55eEFAxlR80Mi2E83-20" edge="1">
          <mxGeometry width="160" relative="1" as="geometry">
            <mxPoint x="150" y="360" as="sourcePoint" />
            <mxPoint x="310" y="360" as="targetPoint" />
          </mxGeometry>
        </mxCell>
        <mxCell id="FSA55eEFAxlR80Mi2E83-18" value="" style="rounded=0;whiteSpace=wrap;html=1;" parent="1" vertex="1">
          <mxGeometry x="700" width="120" height="60" as="geometry" />
        </mxCell>
        <mxCell id="FSA55eEFAxlR80Mi2E83-19" value="" style="endArrow=none;dashed=1;html=1;rounded=0;fontSize=12;startSize=8;endSize=8;curved=1;" parent="1" source="FSA55eEFAxlR80Mi2E83-18" target="FSA55eEFAxlR80Mi2E83-20" edge="1">
          <mxGeometry width="50" height="50" relative="1" as="geometry">
            <mxPoint x="760" y="110" as="sourcePoint" />
            <mxPoint x="760" y="130.71067811865476" as="targetPoint" />
          </mxGeometry>
        </mxCell>
        <mxCell id="FSA55eEFAxlR80Mi2E83-20" value="" style="html=1;points=[[0,0,0,0,5],[0,1,0,0,-5],[1,0,0,0,5],[1,1,0,0,-5]];perimeter=orthogonalPerimeter;outlineConnect=0;targetShapes=umlLifeline;portConstraint=eastwest;newEdgeStyle={&quot;curved&quot;:0,&quot;rounded&quot;:0};" parent="1" vertex="1">
          <mxGeometry x="755" y="360" width="10" height="80" as="geometry" />
        </mxCell>
        <mxCell id="FSA55eEFAxlR80Mi2E83-21" value="Selecting Type of Event Manager" style="text;strokeColor=none;fillColor=none;html=1;align=center;verticalAlign=middle;whiteSpace=wrap;rounded=0;fontSize=13;" parent="1" vertex="1">
          <mxGeometry x="600" y="330" width="140" height="30" as="geometry" />
        </mxCell>
        <mxCell id="FSA55eEFAxlR80Mi2E83-22" value="Event&lt;div&gt;Manager&lt;/div&gt;" style="text;strokeColor=none;fillColor=none;html=1;align=center;verticalAlign=middle;whiteSpace=wrap;rounded=0;fontSize=16;" parent="1" vertex="1">
          <mxGeometry x="730" y="15" width="60" height="30" as="geometry" />
        </mxCell>
        <mxCell id="FSA55eEFAxlR80Mi2E83-23" value="" style="endArrow=block;dashed=1;endFill=0;endSize=12;html=1;rounded=0;fontSize=12;curved=1;" parent="1" target="uAxd9iSAwdrFBhgmnrhm-7" edge="1">
          <mxGeometry width="160" relative="1" as="geometry">
            <mxPoint x="760" y="400" as="sourcePoint" />
            <mxPoint x="920" y="400" as="targetPoint" />
          </mxGeometry>
        </mxCell>
        <mxCell id="FSA55eEFAxlR80Mi2E83-25" value="Rechecking the selected Event manager" style="text;strokeColor=none;fillColor=none;html=1;align=center;verticalAlign=middle;whiteSpace=wrap;rounded=0;fontSize=16;" parent="1" vertex="1">
          <mxGeometry x="220" y="370" width="490" height="30" as="geometry" />
        </mxCell>
        <mxCell id="FSA55eEFAxlR80Mi2E83-26" value="" style="rounded=0;whiteSpace=wrap;html=1;" parent="1" vertex="1">
          <mxGeometry x="860" width="120" height="60" as="geometry" />
        </mxCell>
        <mxCell id="FSA55eEFAxlR80Mi2E83-27" value="" style="rounded=0;whiteSpace=wrap;html=1;" parent="1" vertex="1">
          <mxGeometry x="1030" width="120" height="60" as="geometry" />
        </mxCell>
        <mxCell id="FSA55eEFAxlR80Mi2E83-28" value="" style="html=1;points=[[0,0,0,0,5],[0,1,0,0,-5],[1,0,0,0,5],[1,1,0,0,-5]];perimeter=orthogonalPerimeter;outlineConnect=0;targetShapes=umlLifeline;portConstraint=eastwest;newEdgeStyle={&quot;curved&quot;:0,&quot;rounded&quot;:0};" parent="1" vertex="1">
          <mxGeometry x="915" y="440" width="10" height="80" as="geometry" />
        </mxCell>
        <mxCell id="FSA55eEFAxlR80Mi2E83-29" value="" style="html=1;points=[[0,0,0,0,5],[0,1,0,0,-5],[1,0,0,0,5],[1,1,0,0,-5]];perimeter=orthogonalPerimeter;outlineConnect=0;targetShapes=umlLifeline;portConstraint=eastwest;newEdgeStyle={&quot;curved&quot;:0,&quot;rounded&quot;:0};" parent="1" vertex="1">
          <mxGeometry x="1085" y="520" width="10" height="80" as="geometry" />
        </mxCell>
        <mxCell id="FSA55eEFAxlR80Mi2E83-30" value="" style="endArrow=none;dashed=1;html=1;rounded=0;fontSize=12;startSize=8;endSize=8;curved=1;" parent="1" source="FSA55eEFAxlR80Mi2E83-26" target="FSA55eEFAxlR80Mi2E83-28" edge="1">
          <mxGeometry width="50" height="50" relative="1" as="geometry">
            <mxPoint x="920" y="110" as="sourcePoint" />
            <mxPoint x="920" y="130.71067811865476" as="targetPoint" />
          </mxGeometry>
        </mxCell>
        <mxCell id="FSA55eEFAxlR80Mi2E83-32" value="" style="endArrow=none;dashed=1;html=1;rounded=0;fontSize=12;startSize=8;endSize=8;curved=1;" parent="1" source="FSA55eEFAxlR80Mi2E83-27" target="FSA55eEFAxlR80Mi2E83-29" edge="1">
          <mxGeometry width="50" height="50" relative="1" as="geometry">
            <mxPoint x="1090" y="110" as="sourcePoint" />
            <mxPoint x="1090" y="130.71067811865476" as="targetPoint" />
          </mxGeometry>
        </mxCell>
        <mxCell id="FSA55eEFAxlR80Mi2E83-34" value="" style="endArrow=open;endFill=1;endSize=12;html=1;rounded=0;fontSize=12;curved=1;" parent="1" target="FSA55eEFAxlR80Mi2E83-28" edge="1">
          <mxGeometry width="160" relative="1" as="geometry">
            <mxPoint x="150" y="440" as="sourcePoint" />
            <mxPoint x="310" y="440" as="targetPoint" />
          </mxGeometry>
        </mxCell>
        <mxCell id="FSA55eEFAxlR80Mi2E83-35" value="" style="endArrow=open;endFill=1;endSize=12;html=1;rounded=0;fontSize=12;curved=1;" parent="1" edge="1">
          <mxGeometry width="160" relative="1" as="geometry">
            <mxPoint x="150" y="520" as="sourcePoint" />
            <mxPoint x="1090" y="520" as="targetPoint" />
          </mxGeometry>
        </mxCell>
        <mxCell id="FSA55eEFAxlR80Mi2E83-36" value="" style="endArrow=block;dashed=1;endFill=0;endSize=12;html=1;rounded=0;fontSize=12;curved=1;" parent="1" target="uAxd9iSAwdrFBhgmnrhm-7" edge="1">
          <mxGeometry width="160" relative="1" as="geometry">
            <mxPoint x="920" y="480" as="sourcePoint" />
            <mxPoint x="1080" y="480" as="targetPoint" />
          </mxGeometry>
        </mxCell>
        <mxCell id="FSA55eEFAxlR80Mi2E83-37" value="" style="endArrow=block;dashed=1;endFill=0;endSize=12;html=1;rounded=0;fontSize=12;curved=1;" parent="1" target="uAxd9iSAwdrFBhgmnrhm-7" edge="1">
          <mxGeometry width="160" relative="1" as="geometry">
            <mxPoint x="1080" y="560" as="sourcePoint" />
            <mxPoint x="1230" y="560" as="targetPoint" />
          </mxGeometry>
        </mxCell>
        <mxCell id="FSA55eEFAxlR80Mi2E83-38" value="Confirm Your Details" style="text;strokeColor=none;fillColor=none;html=1;align=center;verticalAlign=middle;whiteSpace=wrap;rounded=0;fontSize=14;" parent="1" vertex="1">
          <mxGeometry x="770" y="410" width="130" height="30" as="geometry" />
        </mxCell>
        <mxCell id="FSA55eEFAxlR80Mi2E83-39" value="Confirming details" style="text;strokeColor=none;fillColor=none;html=1;align=center;verticalAlign=middle;whiteSpace=wrap;rounded=0;fontSize=16;" parent="1" vertex="1">
          <mxGeometry x="500" y="450" width="230" height="30" as="geometry" />
        </mxCell>
        <mxCell id="FSA55eEFAxlR80Mi2E83-40" value="Checkout" style="text;strokeColor=none;fillColor=none;html=1;align=center;verticalAlign=middle;whiteSpace=wrap;rounded=0;fontSize=16;" parent="1" vertex="1">
          <mxGeometry x="970" y="490" width="60" height="30" as="geometry" />
        </mxCell>
        <mxCell id="FSA55eEFAxlR80Mi2E83-41" value="Confirming checkout" style="text;strokeColor=none;fillColor=none;html=1;align=center;verticalAlign=middle;whiteSpace=wrap;rounded=0;fontSize=16;" parent="1" vertex="1">
          <mxGeometry x="630" y="530" width="240" height="30" as="geometry" />
        </mxCell>
        <mxCell id="FSA55eEFAxlR80Mi2E83-42" value="User" style="text;strokeColor=none;fillColor=none;html=1;align=center;verticalAlign=middle;whiteSpace=wrap;rounded=0;fontSize=16;" parent="1" vertex="1">
          <mxGeometry x="115" y="70" width="60" height="30" as="geometry" />
        </mxCell>
        <mxCell id="FSA55eEFAxlR80Mi2E83-43" value="Confirmation" style="text;strokeColor=none;fillColor=none;html=1;align=center;verticalAlign=middle;whiteSpace=wrap;rounded=0;fontSize=16;" parent="1" vertex="1">
          <mxGeometry x="890" y="15" width="60" height="30" as="geometry" />
        </mxCell>
        <mxCell id="FSA55eEFAxlR80Mi2E83-44" value="Payment" style="text;strokeColor=none;fillColor=none;html=1;align=center;verticalAlign=middle;whiteSpace=wrap;rounded=0;fontSize=16;" parent="1" vertex="1">
          <mxGeometry x="1050" y="15" width="60" height="30" as="geometry" />
        </mxCell>
      </root>
    </mxGraphModel>
  </diagram>
</mxfile>
